<svg width="902" height="448" viewBox="0 0 902 448" fill="none" xmlns="http://www.w3.org/2000/svg">
<path d="M146.953 242.843C146.953 242.843 146.396 242.684 145.759 242.445C145.123 242.126 144.565 241.808 144.088 241.331C142.496 240.137 141.302 239.341 140.427 239.102C139.551 238.863 138.914 238.545 138.357 238.226C137.8 237.908 137.402 237.351 137.084 236.475C136.765 235.6 136.367 234.804 135.89 234.167C135.412 233.53 134.855 232.973 134.218 232.416C133.581 231.859 132.945 230.904 132.228 229.551C131.512 228.197 131.034 225.252 130.716 220.795C130.477 217.452 130.477 213.154 130.716 207.821C131.114 195.643 133.661 173.118 138.357 140.245C138.994 135.868 139.312 133.161 139.233 132.206C136.606 135.231 133.024 139.688 128.487 145.499C120.13 155.925 113.524 164.124 108.589 170.014C99.9129 180.679 93.7045 186.649 89.9635 187.923C88.3716 188.559 86.4614 188.957 84.3123 189.116C81.3673 189.355 78.5019 189.674 75.8753 189.992C74.9997 189.196 73.6466 188.48 71.9751 187.684C70.224 186.888 68.1546 185.535 65.6871 183.545C59.6379 179.008 53.9071 167.785 48.4151 149.876C47.062 145.817 45.3905 141.36 43.4006 136.504C43.0027 137.38 42.4455 140.166 41.8087 144.862L40.9332 149.637C37.6698 170.014 35.0432 190.231 33.0533 210.209C31.939 221.671 31.4614 229.312 31.7798 233.291L32.1778 235.759C32.2574 237.112 32.0186 237.749 31.3022 237.828C30.6655 237.828 30.2675 238.067 30.1083 238.306C29.9491 238.545 29.9491 239.022 29.9491 239.659C30.0287 241.171 29.6307 242.365 28.7552 243.4C27.8001 244.355 26.7653 245.072 25.651 245.549C24.4571 245.629 23.7407 245.231 23.4224 244.196C23.104 243.241 22.6264 242.763 21.9897 242.843C21.5121 242.843 20.9549 243.559 20.2386 244.833C19.6018 246.106 18.6467 246.823 17.5324 246.902C16.5772 246.902 15.2241 246.425 13.6322 245.31C12.0403 244.196 10.8464 243.559 9.97086 243.48C9.65248 243.161 9.17491 242.843 8.53816 242.604C7.9014 242.286 6.62788 240.216 4.71761 236.396C4.16045 235.759 3.76248 235.441 3.3645 235.52C1.69301 235.679 0.658283 232.973 0.26031 227.481C-0.854016 213.074 1.61342 188.002 7.58302 152.185C10.6872 133.639 12.9159 118.914 14.1894 107.93C15.5425 97.6622 16.8956 90.0211 18.0895 84.927C19.2834 79.8329 21.1141 76.49 23.4224 74.7389C25.7306 72.9878 29.3124 72.0327 33.9289 71.7143L38.6249 71.3959C39.5005 71.4755 40.0577 71.6347 40.5352 71.8735C40.9332 72.1123 41.4904 72.5102 42.0475 73.147C43.2414 74.0225 44.9129 74.6593 46.9028 75.0573C47.6987 75.0573 48.4947 75.0573 49.2906 75.2165C50.0866 75.3756 50.7233 75.8532 51.3601 76.4104C51.9969 76.9675 52.554 77.4451 53.1112 77.6839C53.6683 77.9227 53.9867 78.0023 54.1459 78.0023C59.3196 77.6043 68.3138 98.2193 81.3673 139.927L83.9143 147.488C84.8695 147.488 97.4454 131.808 121.563 100.687C131.83 86.7577 139.392 78.3206 144.168 75.4552C146.715 74.1021 149.58 73.3062 152.764 73.0674L158.972 72.351L160.644 74.2613C162.474 76.092 163.987 77.0471 165.26 76.8879C166.534 76.8083 167.728 77.0471 168.921 77.6043C172.185 79.1962 173.856 80.5493 174.016 81.7432L174.573 82.2208L175.528 81.9024C176.005 81.9024 176.483 82.3004 176.961 83.1759C177.438 84.0515 177.756 85.6434 177.916 87.9516C177.916 88.4292 177.916 89.2251 177.916 90.1803C177.836 91.215 177.756 92.0109 177.597 92.7273L177.438 93.762L177.199 90.2599C176.961 87.474 176.722 85.6434 176.403 84.927C176.085 84.2107 175.289 83.8923 173.936 83.9719C173.14 84.3698 172.742 85.0066 172.822 85.8025C172.822 86.2801 172.901 86.5985 172.981 86.6781C173.06 86.7577 173.22 86.9169 173.379 87.2353C173.856 87.2353 174.413 88.9863 175.05 92.5681C175.448 97.9009 175.607 101.085 175.528 102.279C174.811 110.795 172.185 135.151 167.568 175.347C163.35 212.119 160.962 231.54 160.484 233.61C160.007 233.61 159.768 233.849 159.768 234.167L160.086 235.361C160.086 235.839 159.848 236.634 159.37 237.669C158.813 238.704 158.017 239.579 156.982 240.375C155.868 241.092 155.072 241.49 154.594 241.569C154.117 241.569 153.798 241.49 153.719 241.171C153.639 240.853 153.48 240.057 153.4 238.704C153.241 238.386 152.923 238.147 152.605 237.988L151.649 238.306C150.535 238.704 149.978 239.579 150.137 240.933C150.137 241.41 149.898 241.888 149.262 242.286C148.625 242.684 147.908 242.922 147.033 242.922L146.953 242.843ZM81.7653 150.593C81.7653 150.593 82.0041 150.115 81.9245 149.558C81.8449 148.364 80.6509 143.747 78.3427 135.549C72.8507 117.8 67.7566 103.632 63.1401 92.9661C59.9563 85.7229 57.8073 82.1412 56.8521 82.2208C56.6929 82.2208 56.6133 82.38 56.6133 82.6983L57.9665 87.0761C58.2052 87.872 58.444 88.4292 58.842 88.668C59.1604 88.9067 59.4788 89.0659 59.6379 89.2251L59.4788 90.0211C59.5583 91.3742 60.1951 93.2844 61.389 95.8315C67.9158 112.148 72.6915 125.679 75.7161 136.504C78.4223 145.976 80.3326 150.672 81.5265 150.593H81.7653ZM62.9013 96.309H62.6625C62.6625 96.309 62.4238 96.309 62.4238 96.0703C62.4238 95.9111 62.5829 95.8315 62.9013 95.7519L63.1401 95.9907C63.1401 95.9907 63.1401 96.2295 62.9013 96.2295V96.309ZM176.244 88.4292C176.244 88.4292 175.926 88.4292 175.846 88.3496C175.767 88.3496 175.687 88.1904 175.687 87.9516H176.165L176.403 88.1108L176.165 88.3496L176.244 88.4292Z" fill="#EEEEEE"/>
<path d="M314.502 243.879C314.025 243.879 313.308 243.879 312.512 243.64C311.637 243.481 310.92 243.083 310.204 242.446C308.771 241.412 307.816 240.854 307.179 240.934C306.622 240.934 305.826 240.616 304.951 239.82C304.075 239.024 303.279 238.148 302.483 237.113C301.767 236.079 301.369 235.362 301.289 234.964C301.289 234.566 300.653 234.168 299.459 233.691C297.548 232.656 295.957 228.995 294.603 222.707C293.33 216.419 292.136 209.972 291.101 203.365C290.624 199.545 290.226 196.361 289.748 193.814C289.271 191.267 288.873 189.993 288.315 190.073C286.803 190.153 272.715 195.565 246.051 206.231L234.191 211.166C220.421 216.18 212.78 219.603 211.268 221.433C210.472 222.309 209.676 223.582 208.8 225.095C205.378 230.507 202.751 233.293 200.92 233.452C200.284 233.452 199.727 233.134 199.488 232.338C199.169 231.542 198.931 231.144 198.771 231.144C198.453 231.144 197.896 231.86 197.18 233.134C196.463 234.407 195.508 235.124 194.314 235.203C193.12 235.283 191.608 234.726 189.698 233.452C187.787 232.179 186.434 231.542 185.718 231.621C185.002 231.621 184.126 230.985 183.171 229.552C182.216 228.119 181.022 226.687 179.589 225.333L179.271 224.856C179.271 224.856 178.873 224.537 178.475 224.458C176.246 221.831 175.052 218.807 174.813 215.464C174.415 209.653 176.405 201.853 180.783 191.983L183.489 185.059C193.996 156.404 207.447 127.591 223.764 98.3799C240.161 69.2482 253.533 50.1455 264.039 41.2309C268.656 38.3655 273.352 36.7736 278.207 36.3756C281.391 36.1368 283.699 36.6144 285.211 37.7287C286.724 38.8431 288.077 39.4002 289.191 39.3206C292.216 39.4002 295.399 40.7533 298.742 43.38C302.085 45.927 304.314 48.7128 305.349 51.6578C310.124 70.6013 313.786 95.6737 316.253 126.795C318.402 155.449 322.064 183.785 327.158 211.643C327.635 213.633 327.954 215.702 328.113 217.852C327.794 217.852 326.043 208.619 322.86 189.993C319.676 171.448 316.651 144.943 313.706 110.717C312.512 95.5145 311.08 81.665 309.328 69.3278C308.532 65.4277 307.816 62.2439 307.1 60.0152L305.667 57.6274V56.6723C305.508 55.3192 305.11 53.8865 304.473 52.2946C302.483 48.3148 301.13 46.325 300.255 46.325C299.936 46.325 299.777 46.7229 299.857 47.3597C299.936 48.7128 300.732 51.5782 302.245 55.9559C307.339 72.2728 310.602 89.9429 312.035 109.205C313.308 125.76 314.9 141.361 316.81 156.086C323.019 200.898 326.362 226.05 326.76 231.542L326.919 233.293H326.441C326.441 233.293 325.884 233.452 325.725 233.611C325.566 233.77 325.407 234.646 325.168 236.158C324.77 239.66 323.576 241.491 321.586 241.65C320.631 241.65 319.835 241.332 319.357 240.456C318.88 239.581 318.482 238.865 318.163 238.387C317.845 237.909 317.606 237.671 317.447 237.671C317.129 237.671 316.81 237.989 316.492 238.467C315.616 239.899 315.218 241.491 315.378 243.322C315.378 243.64 314.98 243.879 314.184 243.879H314.502ZM221.058 181.477C221.535 181.477 223.923 180.522 228.062 178.691C257.671 166.911 275.899 159.986 282.744 157.837L284.972 157.2C282.505 133.083 280.674 114.936 279.64 102.917C278.764 93.6838 278.127 87.157 277.65 83.3365C277.172 79.5159 276.695 77.6853 276.217 77.6853L275.739 78.0037C271.123 82.6997 264.915 91.7735 257.194 105.145C249.473 118.597 242.071 132.606 235.146 147.171C228.142 161.817 223.525 173.279 221.138 181.636L221.058 181.477Z" fill="#EEEEEE"/>
<path d="M354.298 229.153H353.025C352.547 229.312 351.353 228.596 349.602 227.243C348.567 226.686 347.692 226.129 346.976 225.731C346.259 225.253 345.782 225.094 345.543 225.094C345.304 225.094 344.986 224.855 344.588 224.298C344.19 223.741 343.712 223.024 343.155 222.149C342.598 221.273 341.961 220.318 341.324 219.283C340.688 218.249 339.892 217.373 339.096 216.577C338.3 215.781 337.743 214.03 337.583 211.165C337.026 204.24 339.573 185.376 345.065 154.652C350 127.431 353.9 98.5382 356.686 67.8147C357.005 65.1085 357.8 62.641 359.154 60.4124C361.382 56.5918 363.611 54.602 365.919 54.3632C367.431 54.2836 368.466 55.2387 369.103 57.3878C369.342 58.0245 369.501 58.3429 369.66 58.3429C369.819 58.3429 370.058 57.8654 370.297 57.0694C370.934 55.1591 371.809 54.204 372.844 54.1244C374.515 53.9652 375.789 55.4775 376.664 58.5817C376.983 60.2532 377.301 61.1287 377.62 61.2879H377.858C377.858 61.2879 378.813 60.7308 379.609 59.7756C380.485 58.8205 381.36 58.2633 382.316 58.1837C383.35 58.2633 383.987 58.8205 384.305 59.9348C384.624 60.9695 384.942 61.6859 385.181 62.0839C385.499 62.4818 385.659 62.641 385.818 62.641C385.977 62.641 386.057 62.4818 386.057 62.2431C386.057 62.0043 386.057 61.8451 386.295 61.8451C386.534 61.8451 386.614 62.0839 386.853 62.5614C387.091 63.039 387.25 63.2778 387.41 63.2778C387.569 63.2778 387.648 63.1186 387.648 62.8002C387.648 62.4818 387.808 62.2431 388.126 62.1635C388.444 62.0839 388.683 62.0043 388.842 62.0043C389.161 62.0043 389.479 62.0043 389.877 62.3227C390.196 62.5614 390.514 62.8002 390.673 63.1186C391.469 64.8697 391.947 66.8596 392.106 69.0086C392.265 71.1577 392.106 72.5904 391.708 73.3067C390.355 75.0578 389.638 78.162 389.638 82.4601C389.479 85.1663 389.161 87.1562 388.604 88.5093C388.285 89.0665 387.967 90.4992 387.569 92.8074C387.171 95.1157 386.773 97.8219 386.455 100.767C386.057 103.712 385.738 106.259 385.42 108.488V112.229C385.42 112.229 387.012 110.796 389.638 107.93C420.839 73.7843 442.33 51.657 454.11 41.5484C457.453 39.3198 460.239 38.0463 462.547 37.8871C463.184 37.8871 463.821 37.8871 464.457 38.2055C465.094 38.5238 465.412 38.9218 465.412 39.3994C465.412 39.7178 465.333 40.1953 465.015 40.6729C464.696 41.1505 464.617 41.628 464.617 41.9464C464.617 42.1056 464.696 42.1852 464.855 42.1852C465.174 42.1852 465.81 41.7076 466.766 40.9117C467.721 40.1157 468.596 39.6382 469.392 39.5586C470.188 39.5586 470.825 39.7974 471.223 40.4341C471.621 41.0709 471.86 41.7076 471.86 42.424C471.939 43.6179 471.621 44.8914 470.905 46.2445C470.427 46.9609 470.268 47.518 470.268 48.0752C470.268 48.5528 470.586 48.7916 471.064 48.7916C471.7 48.7916 472.496 48.4732 473.372 47.8364C474.247 47.2793 475.521 46.9609 477.192 46.8017C478.546 46.7221 479.182 46.9609 479.262 47.6772L478.466 49.9855C478.466 50.463 478.625 50.7814 478.784 50.9406H480.058L480.774 50.5426C482.127 50.463 482.844 51.657 483.083 54.1244C483.083 55.3183 482.685 56.2735 482.207 56.9102C481.65 57.6266 481.411 58.0245 481.331 58.2633C481.252 58.5021 481.172 58.8205 481.172 59.3776C481.172 59.9348 479.899 62.0043 477.511 65.5064C470.586 75.5354 463.741 84.2908 456.975 91.7727C451.722 97.6627 448.22 100.687 446.389 100.846C445.912 100.846 445.593 100.608 445.593 99.8913C445.593 99.4138 445.593 98.8566 445.753 98.2199C445.912 97.6627 445.912 97.2647 445.912 97.1055C445.912 96.9463 445.832 96.8668 445.673 96.8668H445.434C445.434 96.8668 443.365 98.379 440.261 101.244C419.088 123.531 405.955 138.972 400.782 147.728C397.996 152.424 396.722 156.324 396.881 159.269C397.041 161.577 398.075 163.408 400.065 164.761C402.931 167.069 409.457 169.935 419.805 173.357C430.152 176.859 441.852 180.202 454.906 183.545C458.169 184.262 460.716 184.978 462.706 185.615C464.696 186.252 466.129 186.809 467.084 187.286C468.039 187.764 468.676 188.241 468.915 188.639C469.233 189.037 469.472 189.356 469.631 189.674C469.711 190.868 471.462 191.903 474.884 192.778C476.635 193.495 477.511 194.131 477.511 194.689C477.511 195.246 477.59 195.644 477.75 195.883C477.829 196.121 478.227 196.36 478.784 196.519C479.421 196.758 479.66 196.997 479.74 197.315C479.74 197.793 479.421 198.111 478.784 198.111C478.148 198.111 477.829 198.43 477.829 198.907L478.148 199.623C478.148 199.623 477.67 200.34 476.795 201.215V202.489C476.954 203.285 476.874 203.922 476.795 204.24L474.725 206.628V206.867L475.362 208.777C475.362 209.812 475.362 210.448 475.043 210.926C474.725 211.324 474.407 211.563 474.009 211.642C473.611 211.642 473.213 211.801 472.815 212.12C472.417 212.438 472.098 212.677 471.78 212.916C471.462 213.155 471.302 213.393 471.302 213.553L471.621 214.03H471.86L471.621 214.269C471.462 214.587 471.064 214.985 470.507 215.463C469.87 215.94 468.676 216.259 466.845 216.338C462.706 216.657 455.065 215.463 443.922 212.836C432.779 210.21 420.362 206.309 406.592 201.295C392.822 196.281 383.35 191.584 378.177 187.366C376.744 186.013 375.55 185.296 374.515 185.376C374.356 185.376 373.879 185.694 373.083 186.252C372.287 186.809 371.73 190.231 371.411 196.599L371.57 198.35C372.207 198.35 372.605 198.987 372.764 200.499C372.923 202.648 372.525 204.718 371.65 206.707C370.695 208.697 370.297 210.13 370.376 210.926C370.376 211.881 370.615 212.757 370.774 213.393C371.013 214.03 371.093 214.746 371.172 215.622C371.172 216.259 370.854 217.294 370.138 218.567C369.421 219.841 368.068 221.751 366.158 224.139C364.248 226.526 362.735 227.8 361.541 227.88C360.666 227.88 360.109 227.561 359.79 226.606C359.472 225.731 359.154 225.253 358.835 225.333C358.358 225.333 357.641 225.969 356.845 227.084C356.049 228.198 355.174 228.835 354.378 228.914L354.298 229.153ZM395.051 159.587L395.21 158.791L394.892 157.597V159.587H395.051Z" fill="#EEEEEE"/>
<path d="M538.56 219.442C515.717 221.193 500.116 214.428 491.759 199.225C487.62 192.539 485.152 184.818 484.516 176.063C483.879 168.103 484.834 158.154 487.222 146.135C489.61 134.117 493.669 118.436 499.4 99.0153C502.663 87.6332 505.051 79.2758 506.404 74.0225C507.757 68.7693 508.394 65.1875 508.235 63.3568C508.155 62.0037 507.678 61.1282 506.882 60.7302C506.086 60.2527 505.449 59.5363 504.971 58.5016C504.494 57.4668 504.175 56.3525 504.096 55.1586C504.096 54.5218 504.175 53.4075 504.573 51.8952C504.573 51.5768 504.096 51.1789 503.141 50.7809C502.186 50.3829 501.708 49.5074 501.549 48.1543C501.39 46.3236 502.026 44.2541 503.459 42.0255C504.892 39.7172 506.802 37.8865 509.11 36.3742C510.065 35.9763 515.717 35.1803 525.905 34.066C536.172 32.9517 547.714 31.9169 560.688 30.9618C597.779 28.176 617.041 28.4148 618.473 31.8374C618.553 33.3497 619.269 34.3844 620.463 34.9415C621.657 35.4987 622.851 35.9763 624.045 36.4538C626.274 36.9314 627.388 37.6478 627.468 38.6029C627.468 39.4784 628.264 40.354 629.617 41.0703C629.935 41.2295 630.174 41.3887 630.174 41.5479C630.174 41.7071 629.935 41.7867 629.298 41.8663C628.741 41.8663 628.423 42.4234 628.423 43.299C628.423 44.2541 628.264 44.7317 628.025 44.8113C627.786 44.8909 627.547 44.9705 627.388 45.1297C627.229 45.2093 627.229 45.7664 627.229 46.8012C627.388 48.4726 626.99 49.3482 626.194 49.3482C625.717 49.9053 625.557 50.3033 625.557 50.6217L626.274 53.0891C626.433 54.9198 625.478 55.9545 623.488 56.2729C622.851 56.2729 622.453 56.5117 622.374 56.7505C622.374 56.9893 622.374 57.3872 622.374 57.8648C622.374 58.3424 622.374 58.8199 622.214 59.2179C622.055 59.6159 621.657 60.0139 621.1 60.4118C620.463 60.8098 619.19 61.0486 617.439 61.2078C615.926 61.2874 613.857 61.2874 611.23 61.2078C604.544 60.7302 592.685 61.1282 575.811 62.4017C568.886 62.9589 562.757 63.516 557.583 64.1528C552.41 64.7896 549.544 65.4263 549.067 65.9039C548.589 66.461 548.191 66.6998 547.873 66.7794C547.157 66.1427 546.599 65.9039 546.281 65.9039C545.803 65.9039 545.326 66.3814 545.008 67.0978C544.689 67.8141 544.53 68.7693 544.61 69.8836C544.61 70.9979 544.61 71.8735 544.61 72.6694C544.61 73.4654 544.291 74.0225 543.973 74.3409C543.654 74.6593 543.575 75.296 543.575 76.092L544.052 79.037C544.132 80.2309 543.734 80.7881 542.779 80.8677C541.903 80.8677 541.267 81.6636 540.948 83.0167C540.63 84.3698 539.675 85.8821 538.162 87.474C537.366 88.5088 536.172 91.3742 534.421 96.1499C532.67 100.846 531.158 105.701 529.805 110.716C528.452 115.73 527.815 118.914 527.895 120.267C528.213 120.426 529.407 120.426 531.397 120.267C534.501 120.028 538.879 119.551 544.291 118.914C549.704 118.277 555.036 117.561 560.131 116.924C565.225 116.287 569.204 115.73 571.99 115.173C574.776 114.616 577.243 114.297 579.392 114.138C585.68 113.661 588.944 114.616 589.103 116.924C589.103 117.242 588.705 118.118 587.829 119.551L588.625 119.71L596.744 118.118L596.903 119.869C596.983 121.222 597.46 121.859 598.256 121.779C599.052 121.7 599.53 121.779 599.53 121.939V122.177C599.132 123.212 598.814 124.486 598.734 125.998C598.575 127.51 598.256 128.943 597.779 130.216C597.301 131.49 597.062 132.445 597.142 133.161C597.142 133.957 597.381 134.594 597.62 134.992C597.938 135.39 598.018 135.788 598.097 136.106C598.097 136.743 597.699 137.46 596.744 138.176C595.789 138.892 595.152 139.847 594.675 141.041C594.675 141.519 594.595 141.996 594.277 142.315C593.242 143.588 590.377 144.623 585.76 145.419C582.656 145.976 572.468 147.488 555.355 149.956C544.132 151.468 532.432 152.98 520.174 154.334C519.537 157.199 519.139 159.826 518.9 162.213C518.662 164.601 518.662 167.705 518.98 171.685C519.617 179.645 520.811 184.5 522.641 186.41C524.393 187.763 527.974 188.241 533.228 187.843C543.654 187.047 557.345 183.943 574.378 178.61C591.411 173.277 604.067 167.705 612.504 162.134C614.892 160.462 616.722 159.587 618.075 159.507C619.031 159.507 619.667 159.826 619.906 160.622L619.349 162.93C619.349 162.93 620.463 162.452 621.657 161.656C622.851 160.86 623.886 160.383 624.682 160.303C626.194 160.224 627.07 160.94 627.308 162.611C627.308 163.248 627.149 164.203 626.672 165.318C626.194 166.432 625.955 167.228 625.955 167.785C625.955 168.103 626.194 168.263 626.512 168.263C626.99 168.263 628.104 167.705 629.855 166.591C631.607 165.556 633.039 164.999 634.233 164.92C634.711 164.92 635.029 165.079 635.029 165.636L635.188 167.387C635.188 168.183 635.586 168.661 636.143 168.82C636.78 168.979 637.099 169.297 637.099 170.014L636.939 171.765C636.939 171.765 637.337 172.242 637.974 172.163C637.974 172.481 637.895 173.038 637.576 173.834C637.258 174.63 637.019 175.506 636.621 176.62C636.303 177.734 636.223 179.326 636.382 181.475C636.701 185.614 631.288 190.549 620.145 196.2C609.002 201.852 595.709 207.025 580.348 211.562C564.986 216.179 550.977 218.885 538.401 219.84L538.56 219.442ZM518.821 183.704V182.43C518.502 181.316 518.264 179.326 518.025 176.461C517.786 173.118 517.945 167.387 518.423 159.189V155.925C517.945 157.995 517.707 159.109 517.707 159.348C517.707 159.587 517.468 161.258 516.831 164.283L516.433 165.556C516.194 166.432 515.955 167.705 515.876 169.457C515.796 171.208 515.796 173.038 515.876 174.789C516.194 178.61 516.592 180.839 517.229 181.555C517.866 182.271 518.343 182.908 518.741 183.545L518.821 183.704ZM519.378 154.652V154.413H518.582C518.582 154.572 518.741 154.652 519.06 154.652H519.298H519.378Z" fill="#EEEEEE"/>
<path d="M718.044 197.554C717.089 197.554 715.815 197.156 714.303 196.201C712.791 195.246 711.756 194.689 711.199 194.689C710.642 194.689 710.084 194.529 709.527 194.291C708.97 194.052 707.856 192.938 706.025 190.948C704.672 188.719 703.399 187.445 702.284 187.207C699.419 186.411 697.668 181.953 697.031 173.835C696.394 165.079 696.633 153.379 697.906 138.813C699.18 124.247 700.692 108.647 702.603 92.0114C704.99 70.9984 706.423 53.9652 706.98 40.9116C707.299 33.7481 708.333 28.7336 710.084 25.9478C711.836 23.162 713.427 21.7293 714.781 21.5701C716.134 21.4905 716.93 22.0477 717.168 23.4008C717.407 24.7539 717.805 25.3907 718.283 25.3111C718.601 25.3111 718.919 24.7539 719.158 23.7192C719.795 21.6497 720.75 20.615 721.865 20.5354C723.218 20.4558 724.332 21.9681 725.207 24.9927C725.526 26.9826 726.003 27.9377 726.64 27.8581C727.118 27.8581 727.834 27.1418 728.71 25.7886C729.585 24.4355 730.62 23.7988 731.814 23.6396C732.451 23.6396 733.008 23.958 733.406 24.7539C734.042 26.7438 734.6 27.6989 735.077 27.6193C735.236 27.6193 735.475 27.4601 735.714 27.2214C735.953 26.9826 736.112 26.8234 736.351 26.8234C736.51 26.8234 736.908 27.0622 737.385 27.4601C737.545 27.4601 737.624 27.3009 737.624 27.0622C737.624 26.8234 737.783 26.6642 738.102 26.6642C739.455 26.5846 740.251 26.9826 740.728 27.9377V29.45C741.286 35.2604 739.535 54.5223 735.714 87.3153C733.804 103.951 732.132 119.631 730.779 134.435C729.506 148.205 729.108 158.393 729.585 165C729.744 167.149 730.063 168.582 730.54 169.298C731.018 170.014 731.257 170.651 731.336 171.129C731.336 171.765 730.938 172.163 729.904 172.243C729.585 172.243 729.426 172.959 729.585 174.233L730.142 178.69L730.54 184.421C730.699 186.092 730.461 186.888 729.824 186.968C729.267 186.968 729.028 187.843 729.108 189.515C729.267 191.186 728.948 192.54 728.312 193.574C727.675 194.609 726.799 195.166 725.844 195.246C724.889 195.246 723.934 194.529 723.218 192.938L721.785 190.55C721.785 190.55 721.626 191.027 721.387 191.584C721.148 192.142 720.83 192.699 720.511 193.415C720.193 194.131 720.113 194.927 720.034 195.803C720.034 196.758 719.317 197.236 718.044 197.315V197.554Z" fill="#EEEEEE"/>
<path d="M797.805 202.011C797.327 202.011 796.372 201.773 795.019 201.215C792.791 200.181 790.641 198.907 788.572 197.236C786.503 195.564 785.229 193.972 784.592 192.54C783.956 191.107 783.239 189.833 782.443 188.799C781.647 187.764 780.851 186.49 780.135 184.819C779.419 183.227 778.941 180.839 778.702 177.655C777.827 166.592 781.409 141.519 789.288 102.677C793.586 82.2213 796.372 68.133 797.566 60.5716C798.044 57.8653 798.999 55.2387 800.432 52.6121C801.466 51.3386 802.023 50.3834 801.944 49.7467C801.944 49.4283 801.546 49.2691 800.909 49.3487C798.76 49.5079 794.701 50.2242 788.811 51.4182C782.921 52.6121 779.021 53.5672 777.27 54.204C776.155 54.4428 775.598 54.9203 775.598 55.5571C775.598 56.1938 774.325 56.9898 771.539 57.8653C765.33 59.8552 758.883 61.0491 752.038 61.6063C749.73 61.7655 748.138 61.7655 747.422 61.6063C746.626 61.4471 745.591 61.2879 744.158 61.2083C742.725 61.1287 741.213 61.0491 739.621 60.8103C738.029 60.5716 737.154 59.9348 737.074 58.7409C737.074 58.2633 736.597 57.6266 735.801 56.9898C735.005 56.2734 734.129 55.7959 733.333 55.5571C732.458 55.3183 732.06 54.9203 731.98 54.4428L732.139 52.9305C732.139 52.2937 731.901 51.7365 731.662 51.259C731.343 50.7814 731.184 50.3834 731.184 50.0651L731.821 48.2344C731.821 47.2792 731.105 46.8017 729.831 46.8813C728.558 46.9609 727.921 46.2445 727.762 44.8118C727.602 42.8219 728.558 40.1953 730.707 36.9319C732.776 33.6686 735.164 31.4399 737.95 30.246C745.909 27.4602 760.555 23.7988 781.806 19.1823C803.138 14.5658 824.39 10.3473 845.562 6.44717C866.734 2.62662 880.186 0.477568 885.837 0C888.065 0.636757 889.498 0.955136 890.294 0.875542C891.01 0.875542 891.647 1.11433 892.204 1.75108C892.761 2.38784 893.08 3.0246 893.08 3.66136C893.08 4.29811 893 4.93487 892.602 5.41244C892.204 5.9696 891.886 6.44717 891.568 7.00433C891.568 7.4819 892.125 7.72069 893.159 7.64109L897.856 6.76555C899.686 6.60636 900.641 7.08393 900.721 8.03906V9.79015C900.721 9.79015 900.88 10.4269 901.278 10.5861C901.676 10.7453 901.994 11.3024 901.994 12.178C901.994 13.0535 901.994 14.0087 901.676 15.2026C901.437 16.3965 901.039 17.3516 900.403 18.068C899.766 18.7843 899.368 19.5007 899.209 20.2966C899.049 21.0926 898.97 21.8885 899.049 22.6845C899.049 23.4804 899.049 24.356 898.89 25.3111C898.731 26.2662 897.935 27.1418 896.582 28.0969C895.229 29.0521 893.08 30.0072 890.214 30.9623C887.269 31.9175 883.131 32.9522 877.718 34.0665L874.296 34.8625C866.893 36.0564 860.446 37.2503 854.954 38.3646C849.462 39.479 844.686 40.3545 840.547 41.0709C836.408 41.7872 832.986 42.5036 830.2 43.0607C827.414 43.6975 825.186 44.175 823.435 44.4934C821.683 44.8118 820.41 45.1302 819.614 45.369C818.818 45.6874 818.261 45.9261 817.942 46.0057C817.624 46.0853 817.465 46.2445 817.465 46.4037C818.102 47.8364 818.42 49.5875 818.579 51.5774C818.738 53.5672 819.057 54.5224 819.534 54.5224C820.012 54.5224 820.728 54.0448 821.683 53.2488C822.639 52.4529 823.594 51.9753 824.549 51.8957C825.504 51.8957 826.141 52.2937 826.379 53.2488L826.22 54.7611C826.22 55.3979 826.459 55.9551 826.698 56.4326C826.937 56.9102 827.175 57.149 827.414 57.149C827.573 56.9898 827.733 56.8306 827.892 56.5918C828.051 56.4326 828.29 56.2734 828.608 56.2734L829.643 57.2286C829.643 57.2286 829.882 57.0694 829.882 56.8306C829.882 56.5918 830.041 56.4326 830.359 56.4326C831.712 56.353 832.429 57.4674 832.588 59.7756C832.747 61.6063 832.588 63.8349 832.27 66.5412C831.872 69.2474 831.394 71.3168 830.837 72.9087C829.722 75.6945 828.847 78.56 828.21 81.5846C827.335 85.3255 826.618 87.2358 826.141 87.2358C825.663 87.2358 825.345 87.8725 825.265 89.0665C824.947 91.2951 823.753 97.2647 821.604 107.055C813.326 146.852 809.585 172.561 810.461 184.103C810.461 186.411 810.381 187.684 810.142 187.843C809.903 188.003 809.744 188.321 809.585 188.639C809.585 189.117 809.824 189.674 810.222 190.311C810.62 190.948 810.859 191.584 810.859 192.301C810.859 192.938 810.381 193.574 809.346 194.052C808.311 194.529 807.834 195.405 807.914 196.678C807.993 197.952 807.675 198.907 807.038 199.783C806.322 200.579 805.446 201.056 804.252 201.136C803.456 201.136 802.422 200.817 801.307 200.101C800.193 199.385 799.317 198.987 798.84 199.066C798.362 199.066 798.123 199.464 798.203 200.101V201.375C798.362 201.852 798.123 202.171 797.566 202.171L797.805 202.011ZM811.893 50.5426L812.371 49.9855C814.52 47.6772 815.555 46.3241 815.555 46.0057L815.077 45.7669C814.44 45.7669 813.724 46.1649 812.928 46.8017C812.132 47.4384 811.814 48.0752 811.814 48.7915L811.973 50.5426H811.893ZM828.29 76.2517L828.767 75.9333C828.529 75.4558 828.369 75.217 828.21 75.217C828.051 75.217 827.971 75.3762 827.971 75.6945L828.29 76.1721V76.2517Z" fill="#EEEEEE"/>
<path d="M181.574 447.482C173.932 448.04 168.998 448.119 166.61 447.642C159.685 445.97 153.795 441.831 148.94 435.225C144.164 429.574 141.458 421.853 140.662 412.142C140.503 409.993 140.503 405.138 140.662 397.497C140.821 389.856 144.403 370.514 151.328 339.313C157.297 310.341 160.64 293.148 161.436 287.577C162.152 280.015 163.824 274.125 166.371 269.986C169.157 265.131 172.022 262.584 175.047 262.345C176.4 262.266 177.116 263.141 177.275 264.892L177.435 267.121L179.504 264.733C180.698 263.3 181.812 262.584 182.847 262.504C184.2 262.425 184.917 263.221 184.996 264.813L184.837 266.564C184.439 268.076 184.28 269.031 184.28 269.35C184.28 269.986 184.439 270.384 184.598 270.543H185.314C186.11 270.384 186.986 269.907 187.862 268.952C188.657 267.996 189.533 267.439 190.409 267.36H191.682C192.319 267.36 192.717 267.996 192.796 269.19C192.876 270.384 193.035 271.021 193.194 271.18C193.354 271.339 193.831 271.419 194.468 271.339C195.105 271.26 195.503 271.499 195.503 271.897C195.503 272.295 195.662 272.533 195.821 272.533L196.299 271.737C196.299 271.737 196.697 271.18 197.015 271.18C197.174 271.18 197.413 271.26 197.652 271.499C197.89 271.737 198.209 272.215 198.527 272.931C198.846 273.648 199.005 274.284 199.084 274.762C199.164 276.115 197.811 282.403 195.025 293.705C192.239 305.008 188.896 318.857 185.076 335.334C181.255 351.81 178.31 367.331 176.241 381.976C174.728 392.244 174.171 400.522 174.649 406.81C175.047 411.744 175.843 414.61 177.037 415.406C177.435 415.883 178.231 416.043 179.584 415.963C180.937 415.883 182.847 415.485 185.474 414.769C188.1 414.053 198.607 411.108 216.993 405.854C232.196 401.556 241.668 399.248 245.488 398.93C248.672 398.691 250.264 399.407 250.423 401.079C250.423 401.556 250.423 401.954 250.423 402.193C250.423 402.432 250.264 402.909 250.184 403.546L256.791 401.795C256.791 401.795 257.507 401.795 257.905 402.113C258.303 402.352 258.542 402.591 258.621 402.909L258.382 403.467C258.382 403.467 258.382 403.865 258.542 404.103C258.701 404.342 258.78 404.422 258.94 404.422C259.099 404.422 259.656 404.422 260.691 404.581C260.85 404.581 260.929 404.74 261.009 405.058L260.77 411.346C260.85 412.54 260.77 413.336 260.611 413.893C260.372 414.371 260.213 414.849 259.974 415.167C259.736 415.485 259.656 415.804 259.656 415.963L259.895 416.202C260.77 416.838 261.248 417.555 261.327 418.59C261.327 419.385 261.009 420.261 260.293 421.137C259.497 422.012 259.178 422.808 259.258 423.445C259.258 424.082 259.258 424.639 259.099 424.957C257.746 427.186 246.682 431.245 225.749 436.976C206.327 442.786 191.682 446.289 181.812 447.562L181.574 447.482ZM173.694 415.804C174.171 415.804 174.012 410.073 173.137 398.611L172.977 405.854C172.818 410.073 172.739 412.62 172.818 413.575C172.898 415.087 173.216 415.804 173.694 415.724V415.804Z" fill="#EEEEEE"/>
<path d="M346.254 437.771C343.07 438.01 339.886 438.09 336.543 438.01C314.973 436.975 297.622 429.971 284.488 416.997C274.38 406.968 268.888 395.427 267.853 382.533C266.739 367.648 273.664 348.227 288.707 324.19C299.452 307.236 310.755 293.784 322.614 283.915C328.106 279.855 333.678 277.547 339.329 277.149C343.786 276.831 347.289 277.627 349.756 279.617C351.507 281.129 353.417 282.323 355.407 283.198C357.397 284.074 359.467 285.427 361.616 287.258C365.755 290.76 367.824 293.546 367.983 295.536C367.983 296.331 367.824 296.809 367.346 296.809C367.028 296.809 366.71 296.411 366.471 295.615C366.232 294.819 365.755 294.023 365.038 293.227C364.322 292.431 363.765 292.033 363.446 292.113C363.287 292.113 363.128 292.272 362.969 292.67C363.446 298.958 363.606 303.495 363.526 306.36C363.526 307.873 363.526 309.146 363.526 310.261C363.526 311.375 363.526 311.852 363.287 311.932C363.128 311.932 362.969 311.932 362.81 311.932L361.775 311.773C361.297 311.773 360.82 312.489 360.342 313.922C359.865 315.275 359.148 316.389 358.114 317.185C357.079 317.981 356.124 318.459 355.328 318.538C354.373 318.538 353.815 318.061 353.656 316.787C353.577 315.514 353.258 314.797 352.781 314.638C352.224 314.399 351.905 314.32 351.746 314.32C351.268 314.32 350.791 314.638 350.313 315.036C349.836 315.514 349.676 316.151 349.756 317.106C349.756 318.061 349.358 318.538 348.403 318.618C346.891 318.698 345.617 317.902 344.423 316.071C343.309 314.24 342.035 313.365 340.762 313.444C340.603 313.444 340.046 313.604 339.17 313.922C338.294 314.24 336.066 316.469 332.564 320.528C311.471 344.964 301.363 364.226 302.477 378.314C303.512 391.925 310.118 400.76 322.216 404.819C328.186 406.729 334.315 407.446 340.603 406.968C347.368 406.491 355.964 403.864 366.232 399.168C376.5 394.472 383.982 384.045 388.598 367.887C390.986 357.54 391.782 347.75 391.145 338.437C390.747 332.945 389.155 325.463 386.29 315.832C383.504 306.201 377.694 294.103 368.938 279.378C367.983 277.627 367.426 275.716 367.267 273.727C366.869 268.792 368.302 264.812 371.645 261.947C372.6 261.23 373.475 260.832 374.271 260.753C375.624 260.673 376.977 261.151 378.41 262.185C378.967 262.663 379.365 262.822 379.604 262.822C379.843 262.822 380.082 262.822 380.241 262.822C380.559 262.822 380.798 262.663 380.957 262.424C381.116 262.185 381.276 262.026 381.435 262.026L381.674 261.787L382.708 262.185C383.186 262.185 383.504 262.026 383.663 261.867C383.823 261.708 383.982 261.628 384.141 261.549H384.38C384.857 261.549 385.812 262.185 387.245 263.538C388.121 264.494 388.837 265.051 389.394 265.369C389.951 265.688 390.588 265.767 391.384 265.688C391.543 265.528 391.782 265.369 392.1 265.369C393.056 265.369 394.249 266.006 395.603 267.439C396.956 268.951 398.548 270.065 400.378 270.941C402.209 271.816 404.756 275.318 408.019 281.447C411.283 287.576 414.467 294.501 417.491 302.062C420.516 309.703 422.506 315.991 423.54 321.085C424.098 324.19 424.575 328.249 424.973 333.184C425.212 338.198 425.291 342.894 425.291 347.431C425.132 353.799 424.655 356.983 424.018 357.062V354.038C424.575 348.307 424.575 341.78 424.018 334.298C423.62 328.965 422.744 323.314 421.471 317.265C419.72 309.703 415.501 299.356 408.895 286.223C406.109 280.731 403.642 276.91 401.254 274.523C402.209 275.637 404.597 280.413 408.497 288.85C412.397 297.287 415.979 308.032 419.322 321.165C420.993 327.533 422.028 334.059 422.585 340.666C423.142 347.988 423.063 355.47 422.267 363.191C419.242 386.751 410.089 405.217 394.966 418.509C381.992 429.971 365.834 436.498 346.493 437.93L346.254 437.771ZM302.158 389.378C302.158 389.378 302.636 389.139 302.636 388.821L302.318 388.104C301.681 386.671 301.283 384.363 301.044 381.179L300.169 376.483L299.452 380.543C299.373 381.577 299.452 383.328 299.611 385.796C299.611 386.831 300.009 387.388 300.646 387.627C301.283 387.865 301.601 388.025 301.681 388.263C301.76 388.502 301.84 388.741 301.84 388.9V389.139C301.84 389.139 301.92 389.378 302.158 389.378ZM303.512 391.288C303.512 391.288 303.75 391.208 303.75 391.049C303.75 390.89 303.75 390.731 303.591 390.651C303.512 390.651 303.114 390.412 302.397 390.094C302.397 390.253 302.556 390.492 302.795 390.81C303.034 391.129 303.273 391.288 303.432 391.288H303.512Z" fill="#EEEEEE"/>
<path d="M495.501 424.956C491.999 425.195 488.576 424.956 485.233 424.239C473.851 421.613 464.459 416.28 457.057 408.241C449.575 400.202 443.924 390.491 440.103 378.95C436.203 367.409 433.815 355.231 432.86 342.496C431.666 327.054 432.382 312.17 434.85 297.604C437.317 283.118 441.138 271.02 446.232 261.389C451.326 251.758 457.216 246.664 463.822 246.186H465.812C469.872 246.664 472.259 246.902 472.976 247.141C473.772 247.3 474.17 247.778 474.17 248.415C474.17 249.051 474.488 249.609 474.886 250.007C475.364 250.405 475.602 250.723 475.602 251.041L475.443 252.076C475.443 252.076 476.239 252.554 477.751 252.554C479.264 252.554 480.458 252.633 481.413 252.872C482.368 253.111 482.925 253.748 483.164 254.703C483.403 255.658 483.96 256.295 484.835 256.613C485.711 256.852 486.109 257.25 486.188 257.727C486.188 258.046 485.87 258.284 485.233 258.284C484.597 258.284 484.278 258.762 484.358 259.638C484.358 260.434 484.358 260.991 484.119 261.309C483.88 261.548 483.721 261.787 483.641 261.946C483.641 262.105 483.641 262.583 483.641 263.458C483.641 264.254 483.641 264.811 483.482 265.13C483.323 265.368 483.164 265.607 483.005 265.766C482.209 266.483 481.89 267.438 481.97 268.632L482.129 270.383C482.129 271.338 481.731 272.054 480.617 272.373C479.582 272.691 479.025 273.328 479.025 274.203C479.025 275.159 478.229 276.114 476.637 277.228C475.045 278.342 473.851 279.855 472.976 281.765C472.1 283.675 471.304 286.779 470.429 291.237C469.792 293.784 469.155 295.694 468.598 296.888L468.12 297.445C468.12 297.445 468.28 297.843 468.678 298.161C468.996 298.48 469.235 298.798 469.235 299.117C469.235 299.435 469.235 299.674 469.076 299.912C468.916 300.072 468.678 300.231 468.359 300.231L467.882 299.992C467.882 299.992 467.643 300.151 467.643 300.47C467.643 300.788 467.802 301.106 468.12 301.425C468.359 301.743 468.518 302.062 468.598 302.38C468.678 303.574 468.518 306.041 468.041 309.941C467.563 313.842 467.245 318.776 466.927 324.905C466.608 331.034 466.767 337.561 467.245 344.486C468.757 364.862 474.647 379.826 484.915 389.377C487.223 391.367 489.611 392.242 492.158 392.083C499.481 391.526 507.122 384.283 515.081 370.195C523.12 356.186 529.01 339.153 532.831 319.015C535.219 302.698 536.015 288.849 535.219 277.626C534.662 270.303 533.468 265.289 531.557 262.423C530.602 261.309 530.125 260.036 530.045 258.523C529.806 255.897 530.523 253.19 532.194 250.484C533.786 247.778 535.696 246.345 537.845 246.186H538.562C541.109 246.584 543.178 246.743 544.85 246.664C545.646 246.664 546.282 246.425 546.68 246.186C547.078 245.868 547.317 245.788 547.556 245.708C547.874 245.708 548.193 245.709 548.591 246.027C548.989 246.345 549.387 246.664 549.785 247.221C550.262 247.778 550.899 248.335 551.695 248.972C552.491 249.609 553.366 249.847 554.401 249.768C555.356 249.768 556.471 250.007 557.744 250.643C558.938 251.28 560.052 252.076 561.007 253.031C561.963 253.986 562.52 254.782 562.599 255.419L562.44 256.931L563.236 260.831C564.032 265.13 564.828 267.677 565.465 268.632C566.102 269.587 566.579 272.214 566.977 276.512C567.455 282.64 567.455 290.361 567.136 299.753C566.738 309.145 566.022 317.264 564.828 324.189C559.256 353.957 550.183 377.915 537.527 396.142C524.951 414.37 511.022 424.001 495.74 425.195L495.501 424.956ZM475.125 380.224C475.125 380.224 475.364 380.144 475.364 379.985L474.488 378.313C469.872 370.035 467.006 358.813 465.971 344.724C465.175 334.457 465.414 323.552 466.767 311.931C467.006 308.907 467.165 307.076 467.086 306.439C466.767 306.28 465.733 315.513 464.22 334.138C463.902 338.516 463.902 343.053 464.22 347.908C464.618 353.559 465.414 358.892 466.529 363.827C467.643 368.841 468.916 371.946 470.27 373.299C471.623 374.652 472.339 375.607 472.498 376.244C472.657 376.881 472.896 377.438 473.215 377.915C474.17 379.507 474.806 380.303 475.125 380.303V380.224ZM467.325 303.892L467.722 303.096L467.245 302.858H467.006C467.006 303.574 467.165 303.892 467.325 303.813V303.892ZM476.239 382.134C476.239 382.134 476.478 382.054 476.478 381.895C475.921 381.258 475.523 380.94 475.125 381.019V381.497C475.523 381.975 475.841 382.213 476.239 382.134ZM476.876 383.328L477.353 383.009C477.353 383.009 477.194 382.532 477.035 382.532C476.717 382.532 476.558 382.771 476.558 383.089C476.558 383.248 476.637 383.328 476.796 383.328H476.876ZM566.42 259.16C566.42 259.16 565.863 258.842 565.704 258.205C565.544 257.568 565.067 257.011 564.191 256.693C563.316 256.374 562.918 255.976 562.838 255.658C562.838 255.499 562.918 255.26 563.157 255.021C563.395 254.782 563.554 254.623 563.714 254.623C564.191 254.623 564.669 254.782 565.146 255.26C565.624 255.737 566.022 256.215 566.42 256.772C566.818 257.329 566.977 257.887 567.057 258.364C567.057 258.842 566.818 259.16 566.34 259.16H566.42ZM569.365 288.61C569.365 288.61 568.808 284.312 568.091 275.716L567.375 262.503C567.455 261.627 567.534 261.229 567.534 261.15C567.534 261.07 567.534 260.991 567.773 260.991C568.171 261.627 568.569 264.413 568.887 269.428C569.047 272.054 569.285 274.92 569.365 277.865C569.524 280.889 569.604 283.357 569.604 285.506C569.604 287.575 569.524 288.61 569.365 288.69V288.61ZM568.569 294.182L568.41 292.431C568.41 292.431 568.967 292.749 568.967 293.386C568.808 293.863 568.649 294.182 568.489 294.182H568.569Z" fill="#EEEEEE"/>
<path d="M641.477 418.589H640.761C640.124 418.668 639.567 418.509 639.249 418.032C638.93 417.554 638.453 417.315 637.975 417.395L635.587 418.589C633.12 418.748 630.493 417.634 627.707 415.087C624.921 412.54 623.489 410.072 623.25 407.525C623.25 406.729 623.409 405.933 623.807 405.217C623.807 405.058 623.568 404.898 623.17 404.739C622.772 404.58 622.374 404.5 622.056 404.341C620.544 403.943 619.668 402.829 619.589 400.998C619.429 398.849 620.146 396.382 621.658 393.755C623.17 391.049 625.319 389.218 628.105 388.104C633.757 385.716 641.955 379.189 652.7 368.603C663.445 358.017 673.315 346.794 682.23 334.775C695.681 316.628 702.049 302.619 701.253 292.829C700.616 283.914 693.93 276.671 681.354 271.1C670.768 266.085 658.192 264.095 643.467 265.21C640.283 265.449 637.099 265.846 633.836 266.404C629.856 266.722 627.787 267.279 627.628 268.155C627.468 269.03 627.309 270.065 627.23 271.418L624.921 287.337C621.26 311.136 617.917 335.094 615.131 359.291C614.097 370.036 613.778 377.597 614.097 382.134C614.097 382.771 614.495 384.283 615.211 386.512C615.37 388.82 615.211 390.014 614.733 390.014C614.415 390.014 614.097 389.855 613.937 389.457C613.699 389.059 613.46 388.82 613.141 388.661C612.823 388.661 612.664 389.059 612.744 389.696L613.301 393.676L613.141 398.212C613.38 398.69 613.619 398.929 613.937 398.929C614.256 398.929 614.574 399.168 614.733 399.645C614.733 400.6 614.415 402.033 613.699 403.864C612.903 405.694 611.948 407.445 610.754 409.117C609.56 410.788 608.366 411.664 607.172 411.744C606.296 411.744 605.66 411.425 605.182 410.629C604.704 409.833 604.306 409.197 603.908 408.719C603.59 409.037 603.272 409.595 603.033 410.311C602.794 411.027 602.396 411.664 601.919 412.38C601.441 413.097 600.645 413.495 599.531 413.574C598.576 413.574 597.063 413.097 595.153 411.903C594.437 411.584 593.72 411.266 592.924 410.948C592.129 410.629 591.492 410.47 591.014 410.47C589.82 410.072 589.024 409.197 588.547 407.764C588.069 406.411 587.592 405.615 587.114 405.376C586.557 405.137 586.318 404.66 586.238 403.784C586.238 402.988 585.761 402.59 584.885 402.67H584.647C582.657 402.829 581.463 400.043 580.985 394.233C580.03 382.134 582.418 355.948 587.99 315.752L593.641 275.079C590.775 274.761 588.228 274.682 585.84 274.682C580.667 274.682 577.483 274.204 576.21 273.01C574.936 271.816 573.981 271.02 573.185 270.463C572.389 269.906 571.752 269.428 571.354 268.871C570.877 268.314 570.558 266.961 570.32 264.812C570.081 262.663 569.842 261.469 569.524 261.15C569.205 260.832 568.887 260.514 568.568 260.195C567.534 259.638 566.977 258.683 566.817 257.33C566.579 254.544 567.852 251.44 570.638 248.017C572.628 246.027 577.165 244.038 584.169 241.968C598.018 238.068 613.937 235.441 631.767 234.088C642.512 233.292 652.461 233.213 661.455 233.849C677.056 235.68 691.781 240.854 705.631 249.37C719.48 257.887 728.713 267.518 733.568 278.104C734.444 281.208 735.081 284.71 735.399 288.69C735.717 292.67 735.797 295.695 735.558 297.684C735.399 299.674 735.081 300.709 734.762 300.709L734.285 300.47C734.921 295.774 735.16 292.192 734.921 289.645C734.523 284.87 733.568 280.81 731.976 277.627C730.782 275.557 729.986 274.522 729.509 274.602C729.35 274.602 729.27 274.841 729.35 275.398L730.464 280.572C730.464 281.049 730.464 281.606 730.305 282.243C730.225 282.8 730.146 283.517 730.225 284.392C730.225 284.87 730.544 286.541 731.101 289.407C731.658 292.272 731.976 294.341 732.056 295.695C732.374 299.833 731.738 305.644 730.225 313.205C728.713 320.767 723.539 331.353 714.784 344.964C707.78 355.47 699.263 366.215 689.393 377.279C679.444 388.263 670.052 397.655 661.137 405.535C652.222 413.335 645.616 417.713 641.398 418.509L641.477 418.589Z" fill="#EEEEEE"/>
<path d="M766.594 385.397C764.922 385.556 762.534 384.76 759.43 383.168C756.883 382.054 754.893 380.94 753.699 379.825C752.426 378.791 751.073 377.278 749.64 375.368C748.924 374.254 747.889 372.901 746.615 371.229C745.342 369.558 744.546 367.488 744.387 365.021C744.068 360.723 745.023 356.186 747.332 351.569C749.64 346.873 752.505 344.406 756.008 344.167C757.679 344.008 758.952 343.769 759.908 343.212C760.863 342.734 761.818 342.416 762.853 342.336C763.489 342.336 764.285 342.416 765.24 342.814C766.196 343.132 767.151 343.291 768.185 343.212C769.141 343.212 770.096 342.734 770.812 342.018C770.971 341.859 771.21 341.7 771.528 341.7C772.006 341.7 772.882 342.257 774.155 343.53C775.429 344.804 776.304 345.361 776.782 345.361C777.1 345.361 777.578 345.202 778.214 344.883C778.851 344.565 779.408 344.326 779.886 344.167C780.841 344.167 781.796 344.326 782.592 344.963C783.388 345.6 783.786 346.396 783.866 347.351V347.828C783.945 348.465 784.502 349.341 785.458 350.455C786.413 351.569 787.049 352.684 787.368 353.798C787.368 354.116 787.527 354.276 787.686 354.276L789.756 352.127C789.756 352.127 789.756 352.684 789.596 353.241C789.437 353.878 789.278 354.753 789.039 355.867C788.801 357.061 788.721 358.494 788.88 360.166L789.119 362.872C789.437 367.011 788.084 371.309 784.98 375.766C781.876 380.223 778.294 383.009 774.235 383.964L766.594 385.317V385.397ZM789.676 350.137H789.198C788.641 349.898 788.403 349.341 788.323 348.465C788.323 347.669 788.323 347.192 788.482 347.192C789.756 348.067 790.392 348.863 790.392 349.579C790.392 349.898 790.154 350.057 789.676 350.137Z" fill="#EEEEEE"/>
</svg>
