<svg width="435" height="473" viewBox="0 0 435 473" fill="none" xmlns="http://www.w3.org/2000/svg">
<path d="M126.894 109.606C119.416 102.127 111.028 96.9229 101.73 93.9921C106.682 84.8968 109.158 74.7909 109.158 63.6744C109.158 46.0901 102.943 31.0757 90.5128 18.6454C78.0826 6.21513 63.0681 0 45.4838 0H0V218.309H81.8723C99.4565 218.309 114.464 212.094 126.894 199.657C139.324 187.226 145.539 172.219 145.539 154.635C145.539 137.051 139.324 122.043 126.894 109.606ZM36.3885 36.3813H45.4838C53.0632 36.3813 59.5093 39.0377 64.8149 44.3433C70.1205 49.6489 72.7697 56.095 72.7697 63.6744C72.7697 71.2539 70.1205 77.6928 64.8149 82.9984C59.5093 88.304 53.0632 90.9604 45.4838 90.9604H36.3885V36.3813ZM101.196 173.966C95.8906 179.272 89.4517 181.921 81.8723 181.921H36.3885V127.349H81.8723C89.4517 127.349 95.8906 129.998 101.196 135.304C106.502 140.609 109.158 147.055 109.158 154.635C109.158 162.214 106.502 168.66 101.196 173.966Z" fill="#E01212"/>
<path d="M350.054 31.9854C328.731 10.662 303.004 0.00025177 272.888 0.00025177C242.773 0.00025177 217.046 10.662 195.723 31.9854C174.399 53.3161 163.737 79.0357 163.737 109.151C163.737 139.267 174.399 164.994 195.723 186.317C217.046 207.648 242.773 218.309 272.888 218.309C303.004 218.309 328.731 207.648 350.054 186.317C371.378 164.994 382.039 139.274 382.039 109.151C382.039 79.0284 371.378 53.3161 350.054 31.9854ZM324.356 160.626C310.158 174.825 292.999 181.921 272.888 181.921C252.778 181.921 235.619 174.825 221.42 160.626C207.222 146.428 200.119 129.269 200.119 109.151C200.119 89.0333 207.222 71.8821 221.42 57.6833C235.619 43.4845 252.778 36.3815 272.888 36.3815C292.999 36.3815 310.158 43.4845 324.356 57.6833C338.555 71.8821 345.658 89.0405 345.658 109.151C345.658 129.262 338.555 146.428 324.356 160.626Z" fill="#E01212"/>
<path d="M382.054 363.856C382.054 393.972 371.37 419.662 350.04 440.986C328.716 462.309 303.018 473 272.91 473H0.00012207V254.712H36.3814V436.619H272.91C292.999 436.619 310.15 429.494 324.349 415.295C338.548 401.14 345.673 383.945 345.673 363.856C345.673 343.767 338.548 326.573 324.349 312.374C310.576 298.601 294.096 291.57 274.809 291.144C274.188 291.094 273.524 291.094 272.91 291.094V291.144H200.148V400.671H163.86V254.813H276.664C283.269 254.958 289.679 255.716 295.85 257.001C316.322 261.086 334.368 271.012 350.04 286.683C371.363 308.007 382.054 333.755 382.054 363.863V363.856Z" fill="#E01212"/>
<path d="M276.663 254.806H236.484V254.712H272.916C274.201 254.712 275.435 254.712 276.67 254.806H276.663Z" fill="#E01212"/>
<path d="M418.11 26.9467C419.503 25.5535 420.203 23.9077 420.203 22.002C420.203 19.822 419.503 18.0102 418.11 16.5737C416.717 15.13 414.955 14.4154 412.819 14.4154H398.757V37.0454H403.629V29.6608H406.972L414.002 37.0454H420.203L412.956 29.3865C414.999 29.1483 416.717 28.3398 418.11 26.9467ZM403.629 25.207V19.1507H411.772C412.797 19.1507 413.642 19.4178 414.313 19.9519C414.991 20.4789 415.323 21.1647 415.323 22.002C415.323 22.8827 414.977 23.6406 414.284 24.2614C413.584 24.8894 412.746 25.207 411.772 25.207H403.629ZM418.11 26.9467C419.503 25.5535 420.203 23.9077 420.203 22.002C420.203 19.822 419.503 18.0102 418.11 16.5737C416.717 15.13 414.955 14.4154 412.819 14.4154H398.757V37.0454H403.629V29.6608H406.972L414.002 37.0454H420.203L412.956 29.3865C414.999 29.1483 416.717 28.3398 418.11 26.9467ZM403.629 25.207V19.1507H411.772C412.797 19.1507 413.642 19.4178 414.313 19.9519C414.991 20.4789 415.323 21.1647 415.323 22.002C415.323 22.8827 414.977 23.6406 414.284 24.2614C413.584 24.8894 412.746 25.207 411.772 25.207H403.629ZM426.989 7.20407C422.232 2.40376 416.392 0 409.476 0C402.561 0 396.721 2.40376 391.964 7.20407C387.207 12.0116 384.825 18.1257 384.825 25.5535C384.825 32.9813 387.207 39.1965 391.964 44.0762C396.721 48.9487 402.561 51.3813 409.476 51.3813C416.392 51.3813 422.232 48.9487 426.989 44.0762C431.746 39.1965 434.128 33.0319 434.128 25.5535C434.128 18.0751 431.746 12.0116 426.989 7.20407ZM423.054 40.106C419.337 43.9102 414.818 45.8158 409.476 45.8158C404.135 45.8158 399.616 43.9102 395.898 40.106C392.188 36.3019 390.326 31.451 390.326 25.5535C390.326 19.656 392.188 14.9712 395.898 11.2103C399.616 7.4495 404.135 5.57269 409.476 5.57269C414.818 5.57269 419.337 7.4495 423.054 11.2103C426.765 14.9712 428.627 19.7498 428.627 25.5535C428.627 31.3572 426.765 36.3019 423.054 40.106ZM420.203 22.002C420.203 19.822 419.503 18.0102 418.11 16.5737C416.717 15.13 414.955 14.4154 412.819 14.4154H398.757V37.0454H403.629V29.6608H406.972L414.002 37.0454H420.203L412.956 29.3865C414.999 29.1483 416.717 28.3398 418.11 26.9467C419.503 25.5535 420.203 23.9077 420.203 22.002ZM414.284 24.2614C413.584 24.8894 412.746 25.207 411.772 25.207H403.629V19.1507H411.772C412.797 19.1507 413.642 19.4178 414.313 19.9519C414.991 20.4789 415.323 21.1647 415.323 22.002C415.323 22.8827 414.977 23.6406 414.284 24.2614ZM418.11 26.9467C419.503 25.5535 420.203 23.9077 420.203 22.002C420.203 19.822 419.503 18.0102 418.11 16.5737C416.717 15.13 414.955 14.4154 412.819 14.4154H398.757V37.0454H403.629V29.6608H406.972L414.002 37.0454H420.203L412.956 29.3865C414.999 29.1483 416.717 28.3398 418.11 26.9467ZM403.629 25.207V19.1507H411.772C412.797 19.1507 413.642 19.4178 414.313 19.9519C414.991 20.4789 415.323 21.1647 415.323 22.002C415.323 22.8827 414.977 23.6406 414.284 24.2614C413.584 24.8894 412.746 25.207 411.772 25.207H403.629ZM418.11 26.9467C419.503 25.5535 420.203 23.9077 420.203 22.002C420.203 19.822 419.503 18.0102 418.11 16.5737C416.717 15.13 414.955 14.4154 412.819 14.4154H398.757V37.0454H403.629V29.6608H406.972L414.002 37.0454H420.203L412.956 29.3865C414.999 29.1483 416.717 28.3398 418.11 26.9467ZM403.629 25.207V19.1507H411.772C412.797 19.1507 413.642 19.4178 414.313 19.9519C414.991 20.4789 415.323 21.1647 415.323 22.002C415.323 22.8827 414.977 23.6406 414.284 24.2614C413.584 24.8894 412.746 25.207 411.772 25.207H403.629Z" fill="#E01212"/>
</svg>
