<svg width="913" height="235" viewBox="0 0 913 235" fill="none" xmlns="http://www.w3.org/2000/svg">
<path d="M109.495 101.173C119.498 104.329 128.536 109.926 136.585 117.988C149.971 131.374 156.659 147.519 156.659 166.457C156.659 185.395 149.971 201.54 136.585 214.926C123.199 228.312 107.054 234.999 88.1161 234.999H0V0.0223389H48.9571C67.8838 0.0223389 84.0404 6.7097 97.4264 20.0957C110.812 33.4818 117.5 49.6268 117.5 68.5648C117.5 80.5317 114.832 91.4085 109.507 101.207L109.495 101.173ZM39.159 97.9029H48.9458C57.1091 97.9029 64.035 95.0417 69.7459 89.3308C75.4568 83.6199 78.318 76.6828 78.318 68.5308C78.318 60.3788 75.4568 53.4417 69.7459 47.7307C64.035 42.0198 57.0978 39.1587 48.9458 39.1587H39.159V97.9029ZM88.1161 195.817C96.2795 195.817 103.217 192.956 108.928 187.245C114.639 181.534 117.5 174.597 117.5 166.445C117.5 158.293 114.639 151.345 108.928 145.645C103.217 139.934 96.2795 137.073 88.1161 137.073H39.159V195.817H88.1161Z" fill="#E01212"/>
<path d="M293.722 234.977C261.307 234.977 233.615 223.498 210.658 200.552C187.701 177.595 176.222 149.915 176.222 117.489C176.222 85.0623 187.701 57.3819 210.658 34.436C233.615 11.4901 261.295 0.0114746 293.722 0.0114746C326.148 0.0114746 353.828 11.4901 376.774 34.436C399.732 57.3932 411.21 85.0736 411.21 117.489C411.21 149.903 399.732 177.595 376.774 200.552C353.817 223.51 326.137 234.977 293.722 234.977ZM293.722 195.818C315.373 195.818 333.834 188.177 349.117 172.895C364.399 157.613 372.04 139.14 372.04 117.489C372.04 95.837 364.399 77.3758 349.117 62.0937C333.834 46.8115 315.362 39.1705 293.722 39.1705C272.081 39.1705 253.609 46.8115 238.327 62.0937C223.045 77.3758 215.404 95.8483 215.404 117.489C215.404 139.129 223.045 157.613 238.327 172.895C253.609 188.177 272.081 195.818 293.722 195.818Z" fill="#E01212"/>
<path d="M856.718 117.488C856.718 149.903 845.216 177.561 822.259 200.507C799.302 223.464 771.644 234.965 739.241 234.965H445.485V0H484.644V195.806H739.241C760.869 195.806 779.319 188.143 794.601 172.849C809.883 157.613 817.559 139.106 817.559 117.488C817.559 95.8709 809.895 77.353 794.601 62.0709C779.773 47.2429 762.039 39.6813 741.284 39.2158C740.614 39.159 739.899 39.159 739.241 39.159V39.2158H660.922V157.102H621.866V0.102197H743.282C750.39 0.249795 757.293 1.07861 763.935 2.45241C785.973 6.8463 805.399 17.5302 822.27 34.4018C845.228 57.3591 856.729 85.0622 856.729 117.477L856.718 117.488Z" fill="#E01212"/>
<path d="M860.102 27.6009C860.102 19.6306 862.657 13.0681 867.754 7.91353C872.864 2.75893 879.119 0.181641 886.545 0.181641C893.97 0.181641 900.226 2.75893 905.335 7.91353C910.444 13.0681 912.999 19.6306 912.999 27.6009C912.999 35.5712 910.444 42.2359 905.335 47.4699C900.226 52.704 893.97 55.3154 886.545 55.3154C879.119 55.3154 872.864 52.704 867.754 47.4699C862.645 42.2359 860.102 35.6166 860.102 27.6009ZM866.006 27.6009C866.006 33.9249 867.993 39.1363 871.978 43.2123C875.963 47.2996 880.811 49.3433 886.545 49.3433C892.278 49.3433 897.126 47.2996 901.111 43.2123C905.097 39.1249 907.084 33.9249 907.084 27.6009C907.084 21.2769 905.085 16.2472 901.111 12.2166C897.126 8.18603 892.267 6.16506 886.545 6.16506C880.823 6.16506 875.963 8.18603 871.978 12.2166C867.993 16.2472 866.006 21.3791 866.006 27.6009ZM890.28 31.6996L898.046 39.9197H891.393L883.842 31.9948H880.255V39.9197H875.032V15.6454H890.121C892.415 15.6454 894.311 16.4175 895.798 17.9616C897.297 19.5057 898.035 21.4472 898.035 23.7861C898.035 25.8297 897.285 27.6009 895.798 29.0882C894.311 30.5869 892.46 31.4498 890.269 31.6996H890.28ZM889.02 20.7205H880.278V27.2149H889.02C890.064 27.2149 890.961 26.8743 891.711 26.2044C892.46 25.5345 892.835 24.7284 892.835 23.7747C892.835 22.8777 892.471 22.1398 891.756 21.5721C891.041 21.0044 890.121 20.7092 889.031 20.7092L889.02 20.7205Z" fill="#E01212"/>
</svg>
